<svg xmlns="http://www.w3.org/2000/svg" viewBox="0 0 32 32">
  <g fill="none" stroke="#FFFFFF" stroke-width="1.5" stroke-linecap="square" stroke-linejoin="miter">
    <!-- left legs -->
    <path d="M14 13 L8.5 9.5 L6 8"/>
    <path d="M13.5 15.5 L7.5 14 L5 14"/>
    <path d="M13.5 17.5 L7.5 18.5 L5 20.5"/>
    <path d="M14 19.5 L9 22.5 L7 25"/>
    <!-- right legs -->
    <path d="M18 13 L23.5 9.5 L26 8"/>
    <path d="M18.5 15.5 L24.5 14 L27 14"/>
    <path d="M18.5 17.5 L24.5 18.5 L27 20.5"/>
    <path d="M18 19.5 L23 22.5 L25 25"/>
    <!-- front fangs -->
    <path d="M14.8 11 L13.2 8.2"/>
    <path d="M17.2 11 L18.8 8.2"/>
  </g>
  <!-- body -->
  <circle cx="16" cy="12.6" r="2.5" fill="#FFFFFF"/>
  <ellipse cx="16" cy="18.4" rx="3.5" ry="4.4" fill="#FFFFFF"/>
</svg>
