<svg xmlns="http://www.w3.org/2000/svg" viewBox="0 0 32 32">
  <rect width="32" height="32" rx="7" fill="#3f4a2b"/>
  <g fill="none" stroke="#EFEAD8" stroke-width="1.7" stroke-linecap="round" stroke-linejoin="round">
    <!-- left legs -->
    <path d="M14 13 L9 10 L6.5 7.5"/>
    <path d="M13.5 15.5 L8 14.5 L5.5 13"/>
    <path d="M13.5 18 L8 19 L5.5 21"/>
    <path d="M14 20.5 L9.5 22.5 L8 25.5"/>
    <!-- right legs -->
    <path d="M18 13 L23 10 L25.5 7.5"/>
    <path d="M18.5 15.5 L24 14.5 L26.5 13"/>
    <path d="M18.5 18 L24 19 L26.5 21"/>
    <path d="M18 20.5 L22.5 22.5 L24 25.5"/>
  </g>
  <!-- body -->
  <circle cx="16" cy="13" r="3.1" fill="#EFEAD8"/>
  <ellipse cx="16" cy="19.5" rx="4.2" ry="5.2" fill="#EFEAD8"/>
  <!-- front fangs -->
  <g fill="none" stroke="#EFEAD8" stroke-width="1.5" stroke-linecap="round">
    <path d="M14.7 10.7 L13 8"/>
    <path d="M17.3 10.7 L19 8"/>
  </g>
</svg>
